<svg width="857" height="651" viewBox="0 0 857 651" fill="none" xmlns="http://www.w3.org/2000/svg">
<g clip-path="url(#clip0_3930_40)">
<path d="M87.0176 3.60156L752.026 181.849" stroke="#51E6FF" stroke-width="12" stroke-linecap="round" stroke-dasharray="22 28"/>
<path d="M590.837 160.109C590.827 160.146 590.817 160.182 590.807 160.219C559.088 278.636 481.645 379.598 375.514 440.895C269.383 502.193 143.258 518.805 24.8835 487.077C24.8468 487.067 24.8101 487.058 24.7734 487.048" stroke="black" stroke-width="13" stroke-linecap="round"/>
<path d="M649.995 175.969C649.985 176.005 649.975 176.042 649.965 176.079C614.041 310.191 526.332 424.535 406.133 493.956C285.934 563.378 143.09 582.19 9.02603 546.255C8.98936 546.245 8.95269 546.236 8.91602 546.226" stroke="black" stroke-width="13" stroke-linecap="round"/>
<path d="M9.0293 546.252L144.475 40.5781L649.965 176.072" stroke="black" stroke-width="12" stroke-linecap="round"/>
<path d="M56.9658 537.055L53.6016 556.14" stroke="black" stroke-width="12" stroke-linecap="round"/>
<path d="M101.13 536.211L98.8652 562.108" stroke="black" stroke-width="12" stroke-linecap="round"/>
<path d="M144.488 544.719L144.488 564.099" stroke="black" stroke-width="12" stroke-linecap="round"/>
<path d="M187.822 536.211L190.087 562.108" stroke="black" stroke-width="12" stroke-linecap="round"/>
<path d="M231.998 537.055L235.362 556.14" stroke="black" stroke-width="12" stroke-linecap="round"/>
<path d="M273.199 521.148L279.925 546.258" stroke="black" stroke-width="12" stroke-linecap="round"/>
<path d="M316.838 514.312L323.464 532.524" stroke="black" stroke-width="12" stroke-linecap="round"/>
<path d="M354.66 491.492L365.642 515.052" stroke="black" stroke-width="12" stroke-linecap="round"/>
<path d="M396.459 477.18L406.146 493.963" stroke="black" stroke-width="12" stroke-linecap="round"/>
<path d="M429.738 448.133L444.643 469.426" stroke="black" stroke-width="12" stroke-linecap="round"/>
<path d="M468.42 426.773L480.873 441.62" stroke="black" stroke-width="12" stroke-linecap="round"/>
<path d="M496.156 392.391L514.532 410.773" stroke="black" stroke-width="12" stroke-linecap="round"/>
<path d="M530.525 364.641L545.366 377.098" stroke="black" stroke-width="12" stroke-linecap="round"/>
<path d="M551.877 325.945L573.163 340.856" stroke="black" stroke-width="12" stroke-linecap="round"/>
<path d="M580.92 292.656L597.697 302.347" stroke="black" stroke-width="12" stroke-linecap="round"/>
<path d="M595.227 250.844L618.778 261.83" stroke="black" stroke-width="12" stroke-linecap="round"/>
<path d="M618.035 213.008L636.24 219.636" stroke="black" stroke-width="12" stroke-linecap="round"/>
<path d="M590.805 160.227L649.967 176.084" stroke="black" stroke-width="3" stroke-linecap="round"/>
<path d="M635.226 128.977L627.097 126.798C626.563 126.655 626.015 126.972 625.872 127.505L615.606 165.833C615.463 166.366 615.78 166.914 616.313 167.057L624.443 169.236C624.976 169.379 625.524 169.063 625.667 168.529L635.933 130.202C636.076 129.668 635.76 129.12 635.226 128.977Z" stroke="black" stroke-width="12" stroke-linecap="round"/>
<path d="M164.878 0.437943L156.749 -1.74109C156.216 -1.88408 155.667 -1.56753 155.524 -1.03405L145.258 37.2934C145.115 37.8269 145.432 38.3753 145.966 38.5183L154.095 40.6973C154.628 40.8403 155.177 40.5238 155.32 39.9903L165.586 1.6628C165.729 1.12932 165.412 0.580934 164.878 0.437943Z" stroke="black" stroke-width="12" stroke-linecap="round"/>
<path d="M144.488 40.5781L144.62 607.659" stroke="#CAA013" stroke-width="12" stroke-linecap="round"/>
<path d="M163.297 602.16L145.19 651.001L127 602C132.361 605.931 138.706 607.902 145.075 607.924C151.444 607.947 163.295 602.16 163.295 602.16L163.297 602.16Z" fill="#CAA013" stroke="#CAA013" stroke-linejoin="round"/>
<path d="M810.77 164.078C814.104 170.061 817.437 176.044 822.377 182.454C827.317 188.864 833.857 195.696 839.939 200.369C846.021 205.043 851.633 207.55 857.248 210.059C846.012 209.054 834.779 208.05 824.583 210.403C814.387 212.755 805.233 218.465 796.078 224.174" stroke="black" stroke-width="12" stroke-linecap="round" stroke-linejoin="round"/>
<path d="M813.51 185C811.313 188.704 809.564 192.657 808.301 196.775C807.016 200.967 806.243 205.299 806 209.677C808.35 208.728 810.451 207.253 812.141 205.364C813.832 203.476 815.067 201.225 815.752 198.785C816.403 196.462 816.54 194.025 816.153 191.645C815.766 189.264 814.864 186.996 813.51 185Z" fill="#51E6FF"/>
<path d="M803.617 218.442C802.406 210.689 802.89 202.765 805.035 195.217C807.18 187.669 810.936 180.675 816.042 174.719" stroke="black" stroke-width="12" stroke-linecap="round" stroke-linejoin="round"/>
</g>
<defs>
<clipPath id="clip0_3930_40">
<rect width="857" height="651" fill="white"/>
</clipPath>
</defs>
</svg>
