<svg width="651" height="651" viewBox="0 0 651 651" fill="none" xmlns="http://www.w3.org/2000/svg">
<path d="M611.497 243.402C609.755 239.546 607.465 235.947 604.51 232.815C601.74 229.846 598.327 227.381 594.495 225.64L147.189 3.33002L146.861 3.2016C141.719 0.993029 136.251 0 130.84 0C122.473 0.0127148 114.269 2.33699 106.475 6.20612C94.7785 12.0486 83.7929 21.3724 73.86 33.2226C63.9043 45.0957 55.0471 59.5729 48.1048 75.9928C39.0366 97.4122 34.5381 118.856 34.5254 138.021C34.5381 151.179 36.6297 163.356 41.3393 173.767C43.7119 178.991 46.7494 183.77 50.6186 187.872C54.4508 191.962 59.1248 195.328 64.4307 197.572L64.7689 197.712L321.353 288.673V362.223L165.675 598.601C162.088 604.047 163.606 611.386 169.052 614.973C174.498 618.572 181.837 617.04 185.424 611.607L321.353 405.214V639.163C321.353 645.707 326.645 651 333.189 651C339.71 651 345.004 645.708 345.004 639.163V403.778L481.879 611.608C485.49 617.043 492.806 618.573 498.274 614.974C503.731 611.387 505.228 604.048 501.628 598.602L345.004 360.798V297.063L535.575 364.63V364.606C539.349 366.101 543.347 366.838 547.262 366.838C553.676 366.803 559.788 365.027 565.502 362.222C574.067 357.933 581.863 351.26 588.885 342.882C595.885 334.503 602.078 324.361 606.963 312.898C613.296 297.905 616.463 282.877 616.476 269.274C616.463 259.914 614.991 251.15 611.497 243.402ZM83.0223 177.634C80.6383 177.634 78.3713 177.331 76.1983 176.677L73.5205 175.741C71.4175 174.806 69.5828 173.521 67.8192 171.65C65.1199 168.8 62.6417 164.475 60.9011 158.75C59.1833 153.024 58.1661 145.966 58.1661 138.02C58.1661 122.594 61.9297 103.944 69.8866 85.2123C77.9733 66.0829 89.0517 50.1435 100.41 39.3931C106.043 34.03 111.745 29.974 117.003 27.3801C122.262 24.7634 126.994 23.6293 130.839 23.6293C133.304 23.642 135.432 24.0857 137.476 24.9033L140.081 26.2116C142.057 27.3458 143.857 28.7597 145.527 30.4889C149.034 34.1457 151.932 39.2189 153.918 45.5624C155.917 51.874 156.98 59.3758 156.968 67.6722C156.978 82.6643 153.474 100.089 146.077 117.5C138.271 135.917 127.461 151.225 116.021 161.707C110.319 166.955 104.465 170.974 98.832 173.662C93.2006 176.337 87.8489 177.634 83.0223 177.634ZM201.095 220.955L103.496 186.353C103.858 186.189 104.256 186.025 104.64 185.86C115.239 180.801 125.465 172.516 134.685 161.766C143.94 151.038 152.133 137.81 158.5 122.805C166.551 103.804 170.478 84.7088 170.478 67.6722C170.478 57.2359 168.992 47.5484 165.932 39.0664L258.646 85.131C259.476 86.953 260.258 88.8462 260.926 90.9162C262.935 97.2139 263.986 104.763 263.986 113.036C263.999 128.018 260.492 145.453 253.096 162.887C245.289 181.281 234.469 196.589 223.039 207.071C217.338 212.319 211.483 216.338 205.85 219.026C204.238 219.785 202.66 220.416 201.095 220.955ZM503.813 328.276L218.833 227.252C226.873 222.227 234.597 215.426 241.702 207.143C250.959 196.402 259.15 183.174 265.517 168.158C273.557 149.145 277.495 130.098 277.495 113.036C277.495 106.165 276.84 99.6335 275.543 93.5215L546.232 228.06C547.972 230.27 549.433 233.075 550.52 236.556C551.876 240.856 552.624 246.033 552.624 251.782C552.648 262.194 550.194 274.394 545.005 286.628C539.536 299.541 531.929 310.257 524.018 317.537C520.046 321.183 516.012 323.941 512.203 325.74C509.212 327.166 506.385 327.972 503.813 328.276ZM585.181 303.676C579.887 316.216 572.596 326.662 565.315 333.487C561.704 336.946 558.129 339.458 554.973 341.048C551.794 342.614 549.166 343.174 547.26 343.174C546.009 343.174 545.052 342.963 544.14 342.577L543.813 342.426L523.152 335.111C529.158 331.396 534.861 326.358 540.12 320.27C546.838 312.441 552.809 302.824 557.426 291.909C563.27 278.108 566.143 264.262 566.143 251.781C566.143 246.629 565.594 241.766 564.601 237.174L584.291 246.954L584.618 247.107C585.564 247.492 586.395 248.077 587.317 249.058C588.661 250.437 590.076 252.832 591.128 256.28C592.202 259.74 592.834 264.18 592.834 269.275C592.835 279.161 590.404 291.359 585.181 303.676Z" fill="black"/>
<path d="M124.366 61.365C126.561 60.2093 128.466 59.7299 130.08 59.7299C130.663 59.7299 131.237 59.7884 131.786 59.9181C135.408 60.7471 139.042 58.4686 139.871 54.8461C140.702 51.1995 138.399 47.5783 134.765 46.7595C133.188 46.3857 131.609 46.2344 130.08 46.2344C125.838 46.2344 121.748 47.4385 118.02 49.4245C112.423 52.4405 107.432 57.1145 102.886 63.004C98.3879 68.8452 94.3674 75.9515 91.0031 83.9911C89.5536 87.4267 91.1773 91.3644 94.6255 92.8356C98.0611 94.2723 102.023 92.6486 103.448 89.2016C107.433 79.724 112.377 71.9997 117.308 66.9291C119.737 64.3797 122.18 62.5221 124.366 61.365Z" fill="#51E6FF"/>
</svg>
