<svg width="424" height="668" viewBox="0 0 424 668" fill="none" xmlns="http://www.w3.org/2000/svg">
<g clip-path="url(#clip0_3930_30)">
<path d="M212 376.005C275.456 376.005 327.076 324.399 327.076 260.96C327.076 197.52 275.456 145.914 212 145.914C148.544 145.914 96.9238 197.52 96.9238 260.96C96.9238 324.399 148.544 376.005 212 376.005ZM212 156.871C269.407 156.871 316.117 203.568 316.117 260.96C316.117 318.351 269.407 365.048 212 365.048C154.593 365.048 107.883 318.351 107.883 260.96C107.883 203.568 154.593 156.871 212 156.871Z" fill="#E6EDF7"/>
<path d="M209.904 266.015C210.577 266.293 211.285 266.439 212.001 266.439C212.717 266.439 213.426 266.293 214.098 266.015C214.77 265.738 215.377 265.336 215.881 264.832L252.413 228.31C254.554 226.169 254.554 222.7 252.413 220.56C250.272 218.419 246.802 218.419 244.661 220.56L217.481 247.732V187.916C217.481 184.892 215.026 182.438 212.001 182.438C208.976 182.438 206.521 184.892 206.521 187.916V260.961C206.521 261.676 206.668 262.385 206.945 263.057C207.501 264.394 208.567 265.46 209.904 266.015Z" fill="#E6EDF7"/>
<path d="M400.141 587.386V117.138L419.474 97.8104C423.733 93.5519 424.946 87.4526 422.645 81.8939C420.343 76.3279 415.17 72.8729 409.142 72.8729H360.394L336.166 48.6512C328.231 40.7186 317.68 36.3505 306.458 36.3505H287.33L263.101 12.1289C255.167 4.1962 244.616 -0.171875 233.393 -0.171875H190.6C179.377 -0.171875 168.827 4.1962 160.892 12.1289L136.664 36.3432H117.535C106.313 36.3432 95.7622 40.7113 87.8275 48.6439L63.5993 72.8656H14.8509C8.83036 72.8656 3.65741 76.3206 1.34858 81.8866C-0.952948 87.4453 0.259918 93.5446 4.51957 97.8031L23.8524 117.131V587.386L4.51957 606.713C0.259918 610.972 -0.952948 617.071 1.34858 622.63C3.6501 628.196 8.82305 631.651 14.8509 631.651H101.103L165.298 663.739C171.099 666.639 177.602 668.173 184.082 668.173H239.903C246.392 668.173 252.887 666.639 258.688 663.739L322.883 631.651H409.135C415.155 631.651 420.328 628.196 422.637 622.63C424.939 617.071 423.726 610.972 419.466 606.713L400.141 587.386ZM71.3515 584.179V412.524H206.52V475.014C185.945 477.709 169.988 495.32 169.988 516.612C169.988 539.768 188.839 558.613 212 558.613C235.162 558.613 254.012 539.768 254.012 516.612C254.012 495.313 238.055 477.709 217.48 475.014V412.524H352.649V584.179H71.3515ZM34.8193 120.345H60.3918V584.179H34.8193V120.345ZM352.649 120.345V401.567H71.3515V120.345H352.649ZM212 485.568C229.119 485.568 243.053 499.498 243.053 516.612C243.053 533.727 229.119 547.657 212 547.657C194.881 547.657 180.948 533.727 180.948 516.612C180.948 499.498 194.881 485.568 212 485.568ZM363.609 120.345H389.181V584.179H363.609V120.345ZM11.4826 86.0794C11.7675 85.4001 12.6589 83.8223 14.8582 83.8223H65.8716C67.3256 83.8223 68.7212 83.2452 69.7441 82.2153L95.5796 56.3867C101.447 50.5212 109.243 47.2926 117.535 47.2926H138.936C140.39 47.2926 141.785 46.7156 142.808 45.6856L168.644 19.857C174.511 13.9915 182.307 10.7629 190.6 10.7629H233.393C241.686 10.7629 249.49 13.9915 255.349 19.857L281.185 45.6856C282.215 46.7156 283.611 47.2926 285.057 47.2926H306.458C314.751 47.2926 322.554 50.5212 328.414 56.3867L354.249 82.2153C355.279 83.2452 356.675 83.8223 358.122 83.8223H409.135C411.334 83.8223 412.226 85.4001 412.511 86.0794C412.796 86.7587 413.278 88.5045 411.721 90.0603L392.389 109.388H358.129H65.8716H31.6118L12.279 90.0603C10.7154 88.4972 11.1976 86.7514 11.4826 86.0794ZM412.518 618.444C412.233 619.124 411.342 620.701 409.142 620.701H321.597C320.749 620.701 319.909 620.899 319.149 621.278L253.8 653.944C249.511 656.084 244.711 657.224 239.918 657.224H184.097C179.304 657.224 174.504 656.091 170.215 653.944L104.866 621.278C104.092 620.899 103.251 620.701 102.404 620.701H14.8582C12.6589 620.701 11.7675 619.124 11.4826 618.444C11.1976 617.765 10.7154 616.019 12.2717 614.463L31.6045 595.136H65.8716H358.129H392.389L411.721 614.463C413.285 616.026 412.803 617.772 412.518 618.444Z" fill="#E6EDF7"/>
<path d="M175.468 83.815H248.532C251.557 83.815 254.012 81.3607 254.012 78.3367V41.8143C254.012 38.7902 251.557 36.3359 248.532 36.3359H175.468C172.443 36.3359 169.988 38.7902 169.988 41.8143V78.3367C169.988 81.3607 172.443 83.815 175.468 83.815ZM180.948 47.2927H243.053V72.8583H180.948V47.2927Z" fill="#E6EDF7"/>
<path d="M248.532 620.695H175.468C172.443 620.695 169.988 623.15 169.988 626.174C169.988 629.198 172.443 631.652 175.468 631.652H248.532C251.557 631.652 254.012 629.198 254.012 626.174C254.012 623.15 251.557 620.695 248.532 620.695Z" fill="#E6EDF7"/>
<path d="M102.404 83.8161H138.936C141.961 83.8161 144.416 81.3618 144.416 78.3377C144.416 75.3137 141.961 72.8594 138.936 72.8594H102.404C99.3788 72.8594 96.9238 75.3137 96.9238 78.3377C96.9238 81.3618 99.3788 83.8161 102.404 83.8161Z" fill="#E6EDF7"/>
<path d="M285.064 83.8161H321.596C324.621 83.8161 327.076 81.3618 327.076 78.3377C327.076 75.3137 324.621 72.8594 321.596 72.8594H285.064C282.039 72.8594 279.584 75.3137 279.584 78.3377C279.584 81.3618 282.039 83.8161 285.064 83.8161Z" fill="#E6EDF7"/>
</g>
<defs>
<clipPath id="clip0_3930_30">
<rect width="424" height="668" fill="white"/>
</clipPath>
</defs>
</svg>
