<svg width="93" height="98" viewBox="0 0 93 98" fill="none" xmlns="http://www.w3.org/2000/svg">
<g clip-path="url(#clip0_3910_24)">
<path d="M46.9854 72.5397C43.8475 71.4145 40.7759 70.1125 37.7854 68.6397C26.9354 63.2997 17.8254 56.1797 12.1254 48.5897C6.93535 41.6797 5.25535 35.0797 7.51535 30.4897C9.43535 26.5897 13.9054 24.2297 19.8954 23.4097C20.5654 21.2197 21.3254 19.1397 22.1454 17.1797C12.6254 17.8097 5.30535 21.3997 2.12535 27.8397C-1.20465 34.6297 0.635352 43.2797 7.32535 52.1897C13.5754 60.5197 23.4554 68.2797 35.1354 74.0197C36.0054 74.4497 36.8754 74.8597 37.7454 75.2397C32.7277 76.4287 27.5693 76.915 22.4178 76.6848C18.2031 76.4453 13.607 75.5862 10.276 72.8055C9.12239 71.8492 8.18199 70.6617 7.51538 69.3197C6.12538 66.4897 8.49 58.46 10 54.5C8.7 53.07 7.49006 51.62 6.39 50.15C6.17 49.86 5.95 49.56 5.75 49.27C2.33 55.98 -0.434617 66.7397 2.13538 71.9697C6.49271 80.837 17.5651 82.9263 26.5122 82.7015C33.4898 82.4416 40.3914 81.1573 46.9954 78.8897C50.1533 77.848 53.2514 76.6328 56.2754 75.2497C53.1236 74.5472 50.0205 73.642 46.9854 72.5397Z" fill="black"/>
<path d="M24.232 40.1979C26.6263 37.8785 29.15 35.6966 31.7912 33.6627C41.3706 26.2822 51.7797 21.2485 61.1059 19.4823C69.5969 17.8737 76.261 19.2782 79.3828 23.3316C82.0355 26.7754 82.181 31.828 80.2739 37.5652C81.9436 39.1328 83.4748 40.7325 84.8719 42.3332C88.5071 33.512 88.5152 25.3591 84.1391 19.6639C79.5151 13.6796 70.9408 11.5141 59.9932 13.5863C49.7602 15.5196 38.4371 20.9619 28.1325 28.9108C27.3627 29.5018 26.6109 30.1016 25.886 30.7147C27.033 25.6873 28.8726 20.8435 31.3522 16.3222C33.4268 12.6457 36.2256 8.90018 40.1908 7.13788C41.558 6.52462 43.0385 6.20465 44.537 6.19858C47.6899 6.19989 53.8524 11.8648 56.7398 14.9672C58.5967 14.4315 60.4318 13.9855 62.2363 13.6469C62.5936 13.5775 62.9599 13.5124 63.3084 13.4609C58.7959 7.43114 50.36 0.20268 44.5327 0.201345C34.6527 0.199081 27.8923 9.21348 24.1463 17.3418C21.3008 23.7181 19.4081 30.4782 18.5292 37.4051C18.0706 40.6986 17.7941 44.015 17.7011 47.339C19.7221 44.8206 21.9036 42.4353 24.232 40.1979Z" fill="black"/>
<path d="M70.0161 37.7511C70.3406 41.0688 70.4768 44.4022 70.424 47.7353C70.2357 59.8267 67.6943 71.1062 63.2701 79.5041C59.2425 87.1502 53.9945 91.4908 48.8789 91.4102C44.5324 91.342 40.4879 88.3102 37.1855 83.2459C34.9193 83.5766 32.7141 83.7789 30.5917 83.8756C35.2315 92.2122 41.6065 97.2945 48.7879 97.4158C56.3497 97.523 63.3825 92.1613 68.5767 82.3041C73.4347 73.0926 76.2254 60.8434 76.4205 47.8306C76.4373 46.8603 76.4359 45.8985 76.4075 44.9496C79.6276 48.9771 82.2728 53.4323 84.2672 58.1876C85.8527 62.1001 87.0412 66.6222 85.9517 70.8223C85.5804 72.2741 84.909 73.6319 83.9808 74.8083C82.0168 77.2748 73.7471 78.5703 69.5217 78.8984C68.7848 80.685 67.9913 82.3987 67.1328 84.0217C66.9647 84.3446 66.7875 84.6717 66.6109 84.9765C74.1389 85.1992 85.0476 83.0981 88.6766 78.5387C94.8295 70.8085 91.9842 59.9059 87.9556 51.9139C84.7374 45.7173 80.6256 40.0275 75.7521 35.0271C73.4603 32.6177 71.0372 30.3367 68.4939 28.1944C69.2064 31.3439 69.7149 34.5361 70.0161 37.7511Z" fill="black"/>
</g>
<defs>
<clipPath id="clip0_3910_24">
<rect width="93" height="98" fill="white"/>
</clipPath>
</defs>
</svg>
