<svg xmlns="http://www.w3.org/2000/svg" width="479.761" height="150"><defs><clipPath id="a" clipPathUnits="userSpaceOnUse"><path d="M258.874 684.337h65.6v65.413h-65.6z"/></clipPath><clipPath id="b" clipPathUnits="userSpaceOnUse"><path d="M258.874 684.337H468v65.413H258.874z"/></clipPath></defs><g clip-path="url(#a)" transform="matrix(2.29413 0 0 -2.29413 -593.89 1720.02)"><path d="m0 0-3.845-.164c.144.493.361.716.738 1.034l2.881 2.478-2.652-.113c-.383-.017-.658-.022-.855-.394l-.021-.001-.052 1.213.021.001c.227-.354.502-.343.886-.326l2.735.117c.383.016.657.028.848.393l.021.001.042-1.001H.74a.4.4 0 0 1-.166-.11L.44 3.026-2.618.382l2.597.112c.384.016.658.02.848.393h.021L.899-.318.879-.32C.658.028.384.016 0 0m.558-4.252C.339-5.676-.903-6.508-2.123-6.316c-1.382.218-2.204 1.521-1.991 2.87.211 1.342 1.351 2.322 2.741 2.102C-.086-1.546.815-2.834.558-4.252M-.811-9.283l-.019.006c-.008.374-.504.494-.796.596l-2.825.982-.364-.862a1.7 1.7 0 0 1-.003-1.284l-.007-.02-.745.637.925 2.663.02-.007c.001-.371.494-.499.786-.6l2.443-.848c.298-.103.757-.307.995-.019l.02-.007zm-2.221-5.243c-.701-1.259-2.155-1.606-3.231-1-1.22.686-1.538 2.194-.868 3.384.666 1.183 2.076 1.705 3.302 1.016 1.136-.638 1.533-2.16.797-3.4m-3.873-5.405a5 5 0 0 0-.789-.742l-.599.512.013.016c.423.008.835.342 1.107.659.696.814.695 1.889-.144 2.608-.839.718-2.045.595-2.75-.229a3.5 3.5 0 0 1-.522-.809l.751-.642c.24-.206.5-.419.794-.265l.016-.014-.683-.796-.015.013a.8.8 0 0 1-.202.217l-1.199 1.027c-.078.067-.157.143-.257.175.279.484.549.957.91 1.379 1.142 1.334 2.546 1.496 3.593.6 1.12-.96 1.056-2.448-.024-3.709m-2.199-2.117c-.168-.141-.357-.236-.518-.184l-1.991.669.167-1.525c.021-.207.112-.56.526-.456l.013-.016-.921-.771-.336 3.03-.697.832c-.264.314-.396.472-.828.442l-.013.016 1.026.86.013-.017c-.147-.347.176-.659.382-.905l.653-.778 2.05-.673c.335-.112.586-.198.953-.123zm-5.182 43.882c.349-.125.638.294.834.533l1.635 2.003c.2.245.548.606.36.929l.013.015 1.7-1.388c.091-.074.172-.158.271-.177l.016-.014-.503-.616-.016.013c-.013.321-.213.52-.458.719a4 4 0 0 1-.572.406l-.807-.988.637-.521c.081-.065.165-.135.256-.155l.015-.013-.46-.563-.016.013c.045.229-.187.401-.351.535l-.393.321-.786-.962c-.195-.239-.554-.592-.371-.91l-.013-.016-1.004.82zm-2.7 1.581c-1.177.677-1.686 2.092-.986 3.312.649 1.13 2.174 1.512 3.406.766 1.253-.712 1.587-2.169.972-3.24-.697-1.214-2.208-1.517-3.392-.838m9.411-1.467.013-.015c.028-.086.086-.153.134-.23l.111-.13 1.664-1.943a.8.8 0 0 1 .243-.209l.012-.015-.762-.365-.014.016c.125.224-.027.455-.175.626l-.402.469-2.375-2.035c-.298-.254-.505-.423-.43-.837l-.016-.013-.883 1.031.015.013c.322-.176.676.182.911.382l2.323 1.99-.393.459c-.191.225-.449.41-.739.442l-.013.015zm2.685-3.367.017.011 1.189-1.845c.063-.098.114-.204.203-.253l.011-.017-.675-.435-.011.017c.093.313-.036.564-.207.829-.13.203-.266.4-.42.563l-1.072-.691.442-.686c.059-.092.119-.185.198-.231l.011-.018-.611-.394-.012.017c.108.2-.054.439-.169.617l-.274.428-1.367-.881.402-.777a1.7 1.7 0 0 1 1.027-.847l.012-.018-.922-.227-1.55 2.405.017.012c.294-.228.698.081.958.249l2.174 1.4c.265.171.709.407.629.772m3.384-5.833c.17-.382.273-.802.349-1.21l-.721-.32c.067.442.027.904-.157 1.318-.383.866-1.284 1.187-2.193.784-.922-.409-1.465-1.4-1.037-2.367.209-.47.586-.865.988-1.16l.008-.019-.869-.002a2.4 2.4 0 0 0-.608.863c-.657 1.48-.235 2.762 1.107 3.358 1.298.575 2.563.041 3.133-1.245m.931-2.655.02.005.305-1.267-.02-.005c-.206.303-.684.146-.991.072l-.827-.199.581-2.408.827.2c.307.073.805.144.849.514l.02.006.308-1.274-.02-.005c-.209.309-.687.152-.986.079l-2.522-.607c-.299-.072-.796-.149-.841-.52l-.02-.005-.307 1.274.02.005c.209-.31.685-.146.985-.074l1.207.292-.581 2.407-1.207-.291c-.3-.072-.796-.15-.843-.514l-.02-.004-.305 1.267.02.004c.207-.302.684-.145.984-.073l2.521.608c.301.072.798.143.843.513m-19.87 19.101-.019.006c-.135.297-.397.403-.699.493-.23.068-.462.13-.684.152l-.363-1.223.783-.231c.105-.032.21-.063.3-.047l.021-.006-.207-.697-.02.006c-.049.222-.327.297-.531.358l-.487.144-.461-1.559.812-.326a1.7 1.7 0 0 1 1.331.027l.02-.005-.551-.775-2.742.813.005.02c.371.019.475.517.563.813l.735 2.48c.09.302.271.771-.028.995l.006.02 2.105-.624c.112-.033.22-.079.319-.059l.02-.005zm-5.077-23.06c-1.328-1.169-3.093-1.893-4.457-2.973-.164.408-.144 1.382-.083 1.852.568 4.232 3.331 7.301 3.245 11.817.062 1.868-.325 3.56-1.122 5.085.137.104.211-.091.298-.122 1.469-2.379 3.114-4.683 3.94-7.323.929-2.834.52-6.276-1.821-8.336m-3.809 20.858-.007.453c-.295-.403-.856-.576-1.336-.583-.453-.006-.934.131-1.248.462-.37.392-.363.852-.37 1.346l-.028 1.831c-.004.309.037.81-.316.935v.021l1.304.02v-.021c-.341-.136-.293-.636-.288-.945l.028-1.831c.013-.912.403-1.332 1.11-1.321.384.006.773.169.994.495.148.208.139.38.134.626l-.03 2.065c-.004.308.029.81-.316.935v.021l1.303.019.007-.02c-.348-.136-.299-.636-.295-.951l.039-2.586c.005-.309-.029-.81.323-.936v-.02zm-4.6 3.518-.02-.004c-.131.22-.407.205-.629.164l-.608-.111.563-3.077c.07-.385.112-.649.507-.793l.004-.02-1.336-.244-.004.02c.314.19.184.675.128.979l-.55 3.009-.594-.108c-.29-.053-.58-.183-.753-.417l-.021-.004.089.846.021.004c.087-.019.175-.003.265 0l.169.031 2.517.459a.8.8 0 0 1 .301.105l.021.003zm-4.367-4.856-.006.019c.292.219.105.693.015.988l-.755 2.474c-.092.301-.192.795-.565.817l-.006.02 1.247.38.006-.02c-.29-.224-.103-.698-.013-.993l.755-2.474c.09-.296.196-.786.563-.811l.006-.019zm-2.605-1.022-.008.02c.265.254.031.698-.09.983l-1.195 2.816-.555-.235c-.272-.115-.526-.305-.645-.571l-.018-.009-.098.846.019.008c.089 0 .171.035.258.057l.158.068 2.356.998a.8.8 0 0 1 .272.168l.018.008.117-.837-.019-.008c-.176.186-.442.111-.65.022l-.568-.241 1.222-2.88c.152-.36.25-.609.668-.663l.008-.019zm-.559-24.964c-.27-.093-.237-.456-.237-.676v-1.847c0-.221-.033-.578.237-.671v-.015h-1.024v.015c.269.088.237.45.237.671v1.847c0 .225.037.583-.237.676v.015h1.024zm-2.413 23.233a3.6 3.6 0 0 0-1.156-.464l-.616.628a2.4 2.4 0 0 1 1.579.297c.333.204.715.711.465 1.12-.557.914-2.472-.48-3.229.761-.451.738.133 1.481.847 1.917.293.179.616.32.951.404l.404-.662c-.371.095-.816.008-1.145-.192-.333-.204-.676-.591-.429-.995.489-.802 2.496.44 3.158-.643.382-.627.084-1.613-.829-2.171m-.367-25.937c-.491-.354-1.041-.53-1.655-.603l.269.303c.863.162 1.649.877 1.649 1.7 0 .5-.306 1.049-.926 1.049-.464 0-.788-.328-.788-.739 0-.447.324-.799.82-.799.199 0 .398.063.571.156l-.366-.407a1.3 1.3 0 0 0-.437-.073c-.63 0-1.132.427-1.132 1.02 0 .715.641 1.19 1.402 1.19.846 0 1.401-.603 1.401-1.342 0-.564-.329-1.107-.808-1.455m-2.671 24.614-3.734.703 1.744-2.001c.252-.29.427-.501.841-.423l.013-.015-.915-.798-.013.016c.134.399-.047.606-.298.896l-1.799 2.064c-.252.289-.432.496-.836.417l-.014.015.756.658.004-.005a.4.4 0 0 1 .19-.062l.163-.04 3.975-.74-1.708 1.96c-.252.289-.427.501-.837.418l-.013.015.91.793.014-.015c-.135-.39.046-.597.298-.887l2.528-2.902c-.475-.196-.785-.164-1.269-.067m-.267-43.834c-.926-1.075-2.299-1.135-3.365-.217-.317.273-.59.607-.834.944l.515.598c.129-.429.363-.829.706-1.124.718-.618 1.669-.523 2.318.231.658.764.725 1.893-.076 2.582-.39.337-.901.532-1.39.627l-.015.013.784.374c.343-.095.65-.287.92-.519 1.226-1.056 1.395-2.397.437-3.509m-6.487 3.183-.016-.013-.675.848 1.865 3.308c.208.367.431.702.344 1.132l.015.013.876-1.1-.016-.013c-.327.169-.352.079-.612-.364l-.527-.893 1.077-1.352.979.323c.391.127.576.212.467.547l.016.013.786-.987-.016-.013c-.403.187-.776.039-1.176-.087l-2.952-.885c-.253-.078-.559-.155-.435-.477m-2.54 3.464-.018-.009-.638 1.144.018.01c.284-.242.704.047.974.198l2.613 1.456-.401.844a1.7 1.7 0 0 1-.956.858l-.011.017.971.133 1.373-2.463-.018-.01c-.278.245-.702-.037-.971-.188l-2.26-1.259c-.275-.154-.733-.361-.676-.731m-1.857 3.529-.019-.008-.515 1.197.019.007c.255-.263.705-.024.989.098l2.375 1.021c.284.123.761.282.745.65l.019.007.514-1.197-.018-.008c-.249.267-.7.028-.983-.094l-2.376-1.022c-.29-.125-.769-.278-.75-.651m-1.16 2.89-.019-.006-.62 2.106c-.032.112-.052.229-.123.3l-.006.02.764.224.005-.02c-.17-.272-.117-.549-.028-.852.068-.23.142-.459.243-.657l1.224.359-.232.79c-.029.099-.06.204-.122.272l-.006.02.697.204.006-.019c-.166-.164-.072-.437-.012-.641l.143-.486 1.192.35c.296.086.792.175.82.541l.02.006.366-1.244-.02-.006c-.217.301-.692.118-.989.032l-2.482-.73c-.302-.089-.794-.191-.821-.563m.522 8.586c1.388.182 2.545-.836 2.722-2.189.176-1.347-.64-2.609-2.034-2.791-1.293-.17-2.521.811-2.674 2.243-.194 1.428.762 2.577 1.986 2.737M-60.848.528l-.02.002.075 1.63c.043.919.545 1.397 1.169 1.369.603-.029 1.051-.578 1.155-1.146l1.287.93c.361.265.727.667.991 1.039-.131.376-.393.437-.759.52l-2.669.605c-.375.085-.642.146-.922-.157l-.02.005.221.976.007-.001a.44.44 0 0 1 .19.062l.155.064 3.646 1.748-2.536.575c-.375.085-.641.152-.922-.158l-.02.006.267 1.176.02-.004c.122-.393.389-.454.764-.538l3.753-.851c-.268-.438-.536-.595-.984-.804l-3.429-1.635 2.588-.587c.375-.085.641-.152.928.156l.021-.005-.268-1.185-.014.004-.027-.576c-.017-.364-.116-.586-.379-.779l-1.074-.788-.995-.587c-.057.553-.281 1.202-.925 1.231-.494.023-.801-.388-.801-.849a3.4 3.4 0 0 1 .033-.468l3.069-.142c.316-.014.814-.078.953.265l.021-.001-.06-1.308-.021.001c-.107.355-.616.33-.925.345l-2.583.119c-.315.014-.813.086-.96-.259m2.28 11.766.019-.008c-.001-.366.488-.51.776-.62l2.416-.923c.288-.111.742-.328.986-.054l.019-.008-.466-1.217-.018.007c.007.365-.483.508-.771.618l-2.416.924c-.294.112-.745.336-.991.056l-.02.008zm1.79 3.661 3.769-.466c.418-.053.814-.132 1.178.113l.018-.01-.685-1.228-.018.01c.032.367-.06.356-.57.427l-1.025.148-.841-1.51.671-.783c.266-.313.416-.452.684-.224l.018-.01-.614-1.103-.018.011c.019.444-.259.733-.527 1.055l-1.942 2.393c-.169.204-.357.457-.607.22l-.019.01zm5.919-16.963v-1.847c0-.221-.033-.578.237-.671v-.015h-1.025v.015c.27.088.238.45.238.671v1.847c0 .225.038.583-.238.676v.015h1.025v-.015c-.27-.093-.237-.456-.237-.676m4.122-1.671c0-.558-.625-.94-1.45-.94-.771 0-1.428.342-1.428.911 0 .455.388.705.808.862-.372.137-.679.382-.679.774 0 .5.539.833 1.283.833.55 0 1.261-.221 1.261-.813 0-.353-.345-.584-.657-.725.452-.196.862-.383.862-.902m-6.042 24.127.016-.013c-.128-.344.282-.647.514-.85l1.946-1.703c.233-.203.583-.564.907-.392l.016-.013-.858-.981-.016.013c.133.34-.277.643-.509.846l-1.946 1.703c-.238.207-.584.573-.912.396l-.015.014zm25.71 9.996.02-.002c.077-.046.165-.059.252-.085l.169-.026 2.532-.37a.8.8 0 0 1 .319.003l.021-.003-.336-.776-.02.003c-.053.25-.32.324-.544.357l-.612.089-.452-3.096c-.056-.387-.101-.65.228-.913l-.004-.02-1.344.196.004.02c.358.08.39.581.434.887l.442 3.027-.597.088c-.291.042-.608.012-.847-.154l-.021.003zm-3.053 2.061c-18.115 0-32.801-14.685-32.801-32.799 0-14.15 8.922-26.182 21.476-30.783l.075 4.341.302 5.061c.389 4.525.912 8.981 1.993 13.195.369 1.156.607 2.595 1.933 3.105 1.789.376 3.733.052 5.613.106.006.949.287 2.202-.095 3.052l-.41.374-8.725 3.437c-.153.099-.335.209-.322.421l.002.143h10.882c-.16.199-.422.537-.571.781l-1.115 1.124-3.618 3.037c-1.489 1.246-2.167 2.914-1.823 4.845.654 3.592 4.287 5.892 5.556 9.221-.123-.695-.208-1.207-.331-1.738-.492-2.674-2.013-3.945-2.39-6.679-.016-.339-.195-1.615.102-1.785.066 1.559.69 2.942 1.353 4.277 1.326 2.166 2.95 3.853 3.21 6.493.041.409-.026 1.243-.189 1.774l.097-.002c1.733-2.8 2.612-6.273 1.709-9.763-.602-3.351-2.628-6.636-2.197-10.227.081-.529.181-1.092.344-1.358h11.345a.41.41 0 0 0-.241-.529l-9.058-3.464a1.27 1.27 0 0 1-.635-.851c.045-.175-.122-.336.031-.466.409.149.981.206 1.324-.12.071.183-.022.407.011.63.036.396.352.72.712.85.428.109 1.062.31 1.423-.093.351-.394.389-.937.673-1.339-.021.456-.002.988.457 1.222.46.186 1.151.426 1.58.021.833-1.641 1.388-3.862 1.967-5.596.329.785 1.025 1.137 1.72.999.338-.055.734-.149.853-.509-.14-2.525.381-4.839.756-7.19.104-1.261.942-2.631.165-3.838-.705-1.063-1.709-1.937-2.511-2.959-.189-.249-.156-.618-.133-.928l1.901-8.676c11.983 4.883 20.4 16.644 20.4 30.384 0 18.114-14.686 32.799-32.8 32.799m25.964-45.343c-.838.471-2.032.362-2.559-.577-.511-.909-.174-1.862.717-2.363.873-.491 2.029-.408 2.561.537.521.926.184 1.895-.719 2.403m2.724 9.712c-.949.151-2.03-.366-2.199-1.431-.161-1.03.487-1.806 1.497-1.965.989-.156 2.044.324 2.212 1.394.167 1.05-.487 1.841-1.51 2.002M-48.279-.563c-.291 0-.663-.112-.663-.425 0-.417.663-.564 1.013-.666.222.107.443.312.443.557 0 .309-.275.534-.793.534m33.425 27.651c-.922.529-1.893.201-2.409-.697-.478-.833-.381-2.027.553-2.564.904-.519 1.861-.19 2.369.696.499.869.428 2.025-.513 2.565M-49.071-2.64c0-.402.361-.657.922-.657.382 0 .867.157.867.559 0 .491-.792.627-1.196.74-.28-.103-.593-.348-.593-.642m-5.58 17.662-1.838.254 1.18-1.435zm-3.526-19.84c.952.125 1.843.927 1.703 1.994-.135 1.034-.977 1.595-1.99 1.463-.993-.131-1.869-.888-1.728-1.964.138-1.054.988-1.627 2.015-1.493m4.558-13.411 1.775.546-.842 1.056z" style="fill:#f37421;fill-opacity:1;fill-rule:nonzero;stroke:none" transform="translate(321.797 716.245)"/><path d="M0 0c-.51-.572.061-1.725.163-2.255L1.35-7.806c.036-.184.11-.351.108-.535C1.05-8.412.659-8.539.251-8.63c-.101.293.346.392.543.553l.089.114C.461-5.524.029-3.669-.247-2.453c-.102.449-.488 2.352-.814 2.699z" style="fill:#f37421;fill-opacity:1;fill-rule:nonzero;stroke:none" transform="translate(297.636 715.173)"/><path d="M0 0c-.675.69-1.487 1.362-2.537 1.138-.746-.044-1.448-.294-2.212-.222a1.11 1.11 0 0 0-.31 1.099c.476.65 1.329.674 2.012.944 1.034.417 2.149-.048 2.891-.816l.387-.569C.329 1.06.355.401 0 0m.121-1.959c-.112-.357-.217-.762-.502-1.008-.46 1.363-1.838 1.804-3.083 2.03-.377.064-.765.032-1.05-.215-.373.268-.373.792-.279 1.217.061.153.236.228.382.264.923.167 1.904.335 2.881.21.433-.142.785-.517 1.099-.861.437-.444.737-1.001.552-1.637m-.566-3.564c-.054-.338-.166-.647-.461-.874a3.6 3.6 0 0 0-1.355-.519c-.309 1.149.221 2.661-.819 3.531-.447.512-1.645.687-1.251 1.581.07.164.208.297.374.381.852-.014 1.613-.231 2.294-.66.757-1.011 1.649-2.081 1.218-3.44M-2.243-12.8c-1.021-.041-4.798-.021-4.798-.021l.959 16.416c.388 0 .735.02.878.122-.02-.347.143-.572.347-.797C-6.184 2.165-5.49.879-5.081.532c-.47-1.205.04-1.736.408-2.062-.245-.777-.114-1.246 1.103-1.92.959-.53.816-2.246.837-2.837.02-.592.49-6.513.49-6.513M-4.577 4.129c.428.631 1.195.734 1.847.935.738.094 1.817.356 2.249-.456.184-.525.485-1.092.251-1.698-.681.38-1.37.846-2.246.639-.641-.124-1.282-.239-1.886-.452-.287.218-.318.674-.215 1.032M.79 1.4c-.022.436-.414.714-.591 1.086.323.807.01 1.714-.306 2.446-.13.322-.485.579-.772.71-.286.98-1.16 2.934-1.058 3.812l-.633-.51c.449-.184.727-1.232.809-1.641l.418-1.604-1.348-.093c.007.387.064.89-.378 1.092l-.115.05-.138 1.543c-.041.326.078.551.262.632l.082 1.041c-.409-.326-.574-.967-.633-1.225-.099-.422-.041-1.306 0-2.041-.776-.245-2.614.245-2.614.245v-.245c.245-.082 1.033-.239 1.482-.32.473-.086 1.098.078 1.479-.258.074-.234.049-.534-.09-.735-.672-.26-1.432-.498-1.852-1.207-1.524-.196-3.179-.119-4.675.13.075-.698.863-.499 1.344-.653l.067-.04c.056-1.28.321-2.737-.213-3.909-.741-1.382-2.441-1.14-3.827-1.183l-.006-.348c1.15-.098 2.361-.138 3.423.22.584.203 1.089.814 1.187 1.414.177 1.275-.034 2.509-.1 3.749.486.088 1.009.079 1.532.06l.047-.067-.265-4.645-.396-6.57c-1.155-.115-2.531-.169-3.499.41-1.504.937-1.53 2.758-1.483 4.375l-.513.028-.161-1.508-.365-4.779-.109-2.37c-.013-.184.051-.379.264-.373.085 2.071.352 4.062.504 6.102l.069.067c.234-.507.418-1.025.788-1.476 1.102-1.25 2.907-1.01 4.429-.939l.067-.069-.268-4.79 1.204-.016.258-.009-.069-7.873c1.132-.05 2.45-.004 3.652.052.195.074.035.319.057.483l-.429 5.935-.072 1.404.883.033-.391 5.413.088.096c.438.098.848.265 1.267.413C.184-6.658.071-5.348.128-4.351c-.538.803.421 1.425.484 2.199C.884-1.536.575-.92.313-.403.815.054.731.791.79 1.4" style="fill:#e96d1f;fill-opacity:1;fill-rule:nonzero;stroke:none" transform="translate(296.47 705.27)"/><path d="M0 0c-.043.53-.344 1.417-.1 2.152l-.183.632c-.205-.367-.35-1.025-.309-1.515.043-1.79.276-2.698.236-4.382l-.122-.298c-1.246-.947-3.084-1.37-3.674-3.006-.285-1.885.206-3.685.651-5.398l.369.062c-.334 1.381-.599 2.849-.485 4.358.075 2.129 2.469 2.765 3.881 3.767C.315-2.409.095-1.193 0 0" style="fill:#f37421;fill-opacity:1;fill-rule:nonzero;stroke:none" transform="translate(301.431 707.51)"/></g><g clip-path="url(#b)" transform="matrix(2.29413 0 0 -2.29413 -593.89 1720.02)"><path d="M0 0c-2.393-1.095-6.042-1.379-8.638-1.379-8.314 0-13.789 5.515-13.789 13.91 0 8.314 6.651 13.14 14.519 13.14 2.392 0 5.88-.163 8.151-.974v-6.123l-.892-.162c-.446 4.136-4.055 5.839-7.867 5.839-6.286 0-9.936-4.258-9.936-10.382 0-7.502 4.217-13.261 12.085-13.261 2.312 0 5.272.771 7.138 2.231z" style="fill:#695e4a;fill-opacity:1;fill-rule:nonzero;stroke:none" transform="translate(362.347 704.597)"/><path d="M0 0c0-2.069 1.5-3.204 3.447-3.204 4.623 0 4.218 4.339 4.339 7.705C4.948 4.542 0 3.65 0 0m14.316-4.948-5.719-.851c-.446.891-.649 2.189-.77 3.204-1.379-1.948-4.34-3.082-6.692-3.082-2.798 0-4.745 1.541-4.745 4.46 0 4.948 7.868 6.57 11.437 7.503 0 .811.04 1.582.04 2.393 0 3-1.419 4.096-4.339 4.096-2.23 0-4.259-.69-5.8-2.393v3.244c2.15.649 4.583.973 6.814.973 4.339 0 6.813-.851 6.813-5.556 0-2.757-.162-5.474-.162-8.192 0-2.595 0-5.028 3.284-4.906z" style="fill:#695e4a;fill-opacity:1;fill-rule:nonzero;stroke:none" transform="translate(368.997 708.856)"/><path d="M0 0h-7.543c.77 1.622.851 3.244.851 4.989v19.749c0 2.596-1.014 3.082-3.407 3.123l.244.811 6.53.973V5.475c0-2.798.202-4.583 3.528-4.664z" style="fill:#695e4a;fill-opacity:1;fill-rule:nonzero;stroke:none" transform="translate(394.181 703.502)"/><path d="M0 0c-1.501-1.176-3.528-1.744-5.434-1.744-3.975 0-5.597 1.906-5.597 5.799v11.842h-3.487l.04.933a18.2 18.2 0 0 1 6.286 5.759l.527-.203v-4.461h6.894l-.486-2.028h-6.408V5.232c0-2.839.852-4.867 4.055-4.867 1.298 0 2.596.284 3.772.811z" style="fill:#695e4a;fill-opacity:1;fill-rule:nonzero;stroke:none" transform="translate(409.226 704.8)"/><path d="M0 0c-2.88 0-5.029-2.474-5.029-5.272h3.569c.973 0 4.907-.122 5.19 1.095.041.203.082.446.082.649C3.812-1.582 1.906 0 0 0m-5.11-6.407c-.041-.406-.041-.852-.041-1.258 0-4.785 1.784-9.49 7.34-9.49 1.826 0 4.137.609 5.678 1.664l-.283-2.434c-1.826-.852-4.259-1.216-6.246-1.216-6.327 0-10.382 3.974-10.382 10.3 0 5.272 3.772 10.098 9.287 10.098 4.542 0 7.787-3.082 7.665-7.664z" style="fill:#695e4a;fill-opacity:1;fill-rule:nonzero;stroke:none" transform="translate(419.08 722.198)"/><path d="M0 0c-1.257-.811-3.975-1.135-5.475-1.135-6.043 0-10.747 3.69-10.747 10.016 0 5.962 3.65 10.301 9.774 10.301 1.622 0 4.947-.446 6.407-1.257v-4.258l-.973-.284c-.65 2.96-2.434 4.623-5.516 4.623-4.379 0-5.961-3.731-5.961-7.584 0-4.866 2.109-9.692 7.624-9.692 1.379 0 4.096.486 5.15 1.501z" style="fill:#695e4a;fill-opacity:1;fill-rule:nonzero;stroke:none" transform="translate(445.319 704.273)"/><path d="M0 0h-6.894c.527 1.135.69 2.393.69 3.65v9.936c0 2.717-1.258 3.771-3.935 3.771-1.824 0-3.754-.648-5.173-1.744V5.028c0-2.108.202-4.136 2.798-4.217L-12.676 0h-6.732c.689.811.689 2.433.689 3.488v20.196c0 2.879-.041 4.055-3.244 4.258l.283.811 6.368.892V16.911c2.027 1.42 5.295 2.758 7.85 2.758 3.732 0 4.665-2.393 4.665-5.597V4.664c0-1.987.526-3.975 2.96-3.853z" style="fill:#695e4a;fill-opacity:1;fill-rule:nonzero;stroke:none" transform="translate(467.837 703.502)"/></g></svg>